HIERARCHY
ROOT Hips
{
	OFFSET 0.000000 0.000000 0.000000
	CHANNELS 6 Xposition Yposition Zposition Zrotation Yrotation Xrotation 
	JOINT LeftUpLeg_virtual
	{
		OFFSET 0.000000 0.000000 0.000000
		CHANNELS 3 Zrotation Yrotation Xrotation
		JOINT LeftUpLeg
		{
			OFFSET 10.205400 -3.823500 0.155100
			CHANNELS 3 Zrotation Yrotation Xrotation
			JOINT LeftLeg
			{
				OFFSET 0.708757 -12.982077 0.567790
				CHANNELS 3 Zrotation Yrotation Xrotation
				JOINT LeftFoot
				{
					OFFSET -0.708756 -10.717838 -2.184338
					CHANNELS 3 Zrotation Yrotation Xrotation
					JOINT LeftToeBase
					{
						OFFSET 0.108149 -7.191104 7.560241
						CHANNELS 3 Zrotation Yrotation Xrotation
						End Site
						{
							OFFSET 0.000000 0.000000 0.000000
						}
					}
				}
			}
		}
	}
	JOINT RightUpLeg_virtual
	{
		OFFSET 0.000000 0.000000 0.000000
		CHANNELS 3 Zrotation Yrotation Xrotation
		JOINT RightUpLeg
		{
			OFFSET -10.205400 -3.823500 0.005500
			CHANNELS 3 Zrotation Yrotation Xrotation
			JOINT RightLeg
			{
				OFFSET -0.708756 -12.982134 0.610632
				CHANNELS 3 Zrotation Yrotation Xrotation
				JOINT RightFoot
				{
					OFFSET 0.708754 -10.717769 -1.945823
					CHANNELS 3 Zrotation Yrotation Xrotation
					JOINT RightToeBase
					{
						OFFSET -0.108140 -7.191069 7.372968
						CHANNELS 3 Zrotation Yrotation Xrotation
						End Site
						{
							OFFSET 0.000000 0.000000 0.000000
						}
					}
				}
			}
		}
	}
	JOINT Spine_virtual
	{
		OFFSET 0.000000 0.000000 0.000000
		CHANNELS 3 Zrotation Yrotation Xrotation
		JOINT Spine
		{
			OFFSET 0.000000 6.876099 0.125700
			CHANNELS 3 Zrotation Yrotation Xrotation
			JOINT Spine1
			{
				OFFSET 0.000000 8.022060 0.146608
				CHANNELS 3 Zrotation Yrotation Xrotation
				JOINT Spine2
				{
					OFFSET 0.000000 9.168068 0.167552
					CHANNELS 3 Zrotation Yrotation Xrotation
					JOINT Neck_virtual
					{
						OFFSET 0.000000 0.000000 0.000000
						CHANNELS 3 Zrotation Yrotation Xrotation
						JOINT Neck
						{
							OFFSET 0.000000 10.314075 0.188496
							CHANNELS 3 Zrotation Yrotation Xrotation
							JOINT Head
							{
								OFFSET 0.000000 7.643700 -2.377400
								CHANNELS 3 Zrotation Yrotation Xrotation
								End Site
								{
									OFFSET 0.000000 0.000000 0.000000
								}
							}
						}
					}
					JOINT LeftShoulder_virtual
					{
						OFFSET 0.000000 0.000000 0.000000
						CHANNELS 3 Zrotation Yrotation Xrotation
						JOINT LeftShoulder
						{
							OFFSET 4.392200 8.824978 0.174984
							CHANNELS 3 Zrotation Yrotation Xrotation
							JOINT LeftArm
							{
								OFFSET 8.771219 -2.981674 -0.026999
								CHANNELS 3 Zrotation Yrotation Xrotation
								JOINT LeftForeArm
								{
									OFFSET 8.512804 0.000000 -0.000000
									CHANNELS 3 Zrotation Yrotation Xrotation
									JOINT LeftHand
									{
										OFFSET 18.484802 0.000000 -0.000000
										CHANNELS 3 Zrotation Yrotation Xrotation
										End Site
										{
											OFFSET 0.000000 0.000000 0.000000
										}
									}
								}
							}
						}
					}
					JOINT RightShoulder_virtual
					{
						OFFSET 0.000000 0.000000 0.000000
						CHANNELS 3 Zrotation Yrotation Xrotation
						JOINT RightShoulder
						{
							OFFSET -4.392200 8.824993 0.141379
							CHANNELS 3 Zrotation Yrotation Xrotation
							JOINT RightArm
							{
								OFFSET -8.771282 -2.981682 -0.094208
								CHANNELS 3 Zrotation Yrotation Xrotation
								JOINT RightForeArm
								{
									OFFSET -8.494598 0.000000 0.000000
									CHANNELS 3 Zrotation Yrotation Xrotation
									JOINT RightHand
									{
										OFFSET -18.483803 0.000000 0.000001
										CHANNELS 3 Zrotation Yrotation Xrotation
										End Site
										{
											OFFSET 0.000000 0.000000 0.000000
										}
									}
								}
							}
						}
					}
				}
			}
		}
	}
}
MOTION
Frames: 8
Frame Time: 0.033333
-4.631009 36.357410 -31.259050 179.964297 -0.099382 -179.537820 -1.710772 -3.412047 10.831520 -4.460929 -2.035973 -15.865657 14.100803 3.144047 21.959816 -1.673855 -0.849803 5.948297 0.000000 0.000000 0.000000 3.303384 -1.221999 10.012922 -0.532958 1.205369 -10.035144 -8.151731 -0.614254 15.336403 8.549136 1.341543 4.503131 0.000000 0.000000 0.000000 1.797587 0.656028 -2.689751 -4.727909 2.375589 -6.816666 -0.271889 -3.588485 5.118928 0.032835 0.045963 0.063472 -0.361835 -2.222309 7.373266 -0.236754 0.915764 19.117221 0.000000 0.000000 0.000000 1.454751 -1.399889 3.798815 -6.825096 3.340244 -7.045142 7.387860 11.350848 -42.703060 -2.815226 -44.607976 -2.544673 0.000000 0.000000 0.000000 -2.629638 -0.563917 3.069716 22.107094 -5.126182 -16.759787 2.173795 -13.992818 -50.240457 -1.665745 32.337756 7.106976 0.000000 0.000000 0.000000 
-4.626334 36.340393 -31.258202 179.905298 0.119284 -179.411680 -1.697239 -3.275752 11.002595 -4.232727 -2.222907 -15.734650 14.145444 2.441701 21.970943 -1.561074 -0.666350 6.022577 0.000000 0.000000 0.000000 3.214611 -1.243860 10.121918 -0.290273 0.935779 -10.026647 -8.326147 -1.173089 15.496311 8.261534 1.163312 4.521461 0.000000 0.000000 0.000000 1.725406 0.565374 -2.860547 -4.670250 2.437288 -6.967550 -0.258623 -3.477288 5.073852 -0.007781 -0.052271 0.076316 -0.427644 -2.086467 7.435403 -0.325106 0.736487 19.162960 0.000000 0.000000 0.000000 1.472871 -1.307644 3.788707 -6.948727 3.459314 -6.902281 7.199280 11.529756 -42.699604 -2.761191 -44.574938 -2.573537 0.000000 0.000000 0.000000 -2.643816 -0.468172 3.172086 22.193530 -5.008390 -16.740666 2.109289 -14.021053 -50.089868 -1.622872 32.235228 7.108314 0.000000 0.000000 0.000000 
-4.627425 36.325348 -31.262905 179.880367 0.188504 -179.403115 -1.748829 -3.181579 11.007891 -4.158635 -2.247478 -15.800603 14.016041 2.465460 22.047991 -1.621460 -0.545401 5.963378 0.000000 0.000000 0.000000 3.101006 -1.159487 10.149157 -0.191631 0.776512 -10.131838 -8.322722 -1.200647 15.586941 8.332375 1.254753 4.571017 0.000000 0.000000 0.000000 1.606226 0.785101 -2.915651 -4.589457 2.317894 -7.130927 -0.279633 -3.485633 5.053934 0.033018 0.074988 0.110919 -0.403656 -2.081250 7.468521 -0.177863 0.597721 19.249039 0.000000 0.000000 0.000000 1.453931 -1.300411 3.817441 -7.034419 3.438560 -7.019481 6.944604 11.525702 -42.535908 -2.555034 -44.386244 -2.749164 0.000000 0.000000 0.000000 -2.644542 -0.479524 3.143514 22.368917 -5.067693 -16.678227 2.218035 -14.155167 -50.188507 -1.519174 32.250627 7.024409 0.000000 0.000000 0.000000 
-4.630112 36.311932 -31.270222 179.860765 0.218490 -179.380179 -1.804096 -3.088096 10.993247 -4.056058 -2.273099 -15.856390 13.838921 2.505740 22.178898 -1.721321 -0.394564 5.900440 0.000000 0.000000 0.000000 3.001273 -1.096675 10.121881 -0.132002 0.505482 -10.228581 -8.235228 -1.252808 15.707784 8.582719 1.228354 4.596766 0.000000 0.000000 0.000000 1.483334 0.811402 -2.994674 -4.445943 2.204666 -7.229375 -0.303289 -3.434280 5.053452 0.020508 0.030136 0.077321 -0.297444 -2.146215 7.357468 0.099622 0.441249 19.093620 0.000000 0.000000 0.000000 1.468837 -1.124852 3.787516 -7.147484 3.493957 -6.926647 6.653636 11.472191 -42.567621 -2.537952 -44.070604 -2.702434 0.000000 0.000000 0.000000 -2.625944 -0.318074 3.465287 22.624062 -5.011439 -16.814729 2.271079 -14.201828 -50.259991 -1.439500 32.309008 6.833510 0.000000 0.000000 0.000000 
-4.637033 36.302658 -31.277960 179.828636 0.318783 -179.376504 -1.901438 -2.971426 10.968891 -3.927906 -2.236935 -15.890095 13.653276 2.523839 22.322072 -1.796943 -0.191270 5.870046 0.000000 0.000000 0.000000 2.827680 -1.035606 10.046400 -0.017774 0.274470 -10.280323 -8.335231 -1.345086 15.861434 8.758311 1.346824 4.705217 0.000000 0.000000 0.000000 1.292436 0.877822 -3.036934 -4.295816 2.113674 -7.444146 -0.278553 -3.335724 5.122384 0.038309 0.037525 0.068130 -0.368397 -1.872981 7.504327 0.119005 0.099282 19.337164 0.000000 0.000000 0.000000 1.480946 -1.000732 3.852625 -7.311229 3.460782 -6.863199 6.362459 11.196802 -42.622645 -2.525684 -43.715485 -2.615447 0.000000 0.000000 0.000000 -2.668921 -0.198761 3.362992 22.768912 -5.116490 -16.761327 2.460820 -14.334026 -50.532526 -1.258606 32.504734 6.628895 0.000000 0.000000 0.000000 
-4.655373 36.301037 -31.291384 179.825562 0.511603 -179.355235 -1.985012 -2.882474 10.937651 -3.787613 -2.128882 -15.925891 13.437285 2.611766 22.455456 -1.874814 -0.005555 5.862721 0.000000 0.000000 0.000000 2.708512 -1.017533 9.962543 0.029551 0.063471 -10.311307 -8.359942 -1.314418 15.961170 8.984222 1.442475 4.903316 0.000000 0.000000 0.000000 1.151501 0.941090 -3.071213 -4.148093 2.077245 -7.599686 -0.253701 -3.159610 5.167481 0.030850 0.093565 0.107403 -0.306505 -1.738448 7.501192 0.319195 -0.164788 19.431975 0.000000 0.000000 0.000000 1.463610 -0.967383 3.967821 -7.410233 3.314052 -7.077959 5.944158 10.846625 -42.827793 -2.370239 -43.382793 -2.665531 0.000000 0.000000 0.000000 -2.663416 -0.104485 3.238657 22.954558 -5.309319 -16.544614 2.585409 -14.493533 -50.921608 -1.067334 32.800597 6.381357 0.000000 0.000000 0.000000 
-4.675266 36.302116 -31.303789 179.786179 0.521175 -179.331411 -2.080081 -2.940415 10.939628 -3.645426 -2.029236 -15.948196 13.224453 2.804578 22.636495 -1.949020 0.130151 5.872939 0.000000 0.000000 0.000000 2.576371 -1.181421 9.899403 0.068160 -0.078627 -10.368742 -8.320715 -1.332457 15.912164 9.223347 1.488328 5.074503 0.000000 0.000000 0.000000 0.976191 0.839301 -3.089963 -4.062626 1.956519 -7.714186 -0.150961 -3.049844 5.292061 0.002161 0.074671 0.109994 -0.244326 -1.633297 7.425720 0.511090 -0.426053 19.441894 0.000000 0.000000 0.000000 1.454354 -0.789465 4.015466 -7.458364 3.203924 -7.135660 5.502190 10.433562 -42.639402 -2.220163 -43.084212 -2.712190 0.000000 0.000000 0.000000 -2.675521 0.029909 3.233886 23.162266 -5.417403 -16.462593 2.696056 -14.563818 -51.423996 -0.847843 33.047939 6.129358 0.000000 0.000000 0.000000 
-4.707457 36.313351 -31.300909 179.832638 0.571299 -179.331644 -2.101144 -3.019287 10.975760 -3.470726 -1.879790 -15.976222 13.011429 3.125663 22.761192 -1.997951 0.197534 5.849498 0.000000 0.000000 0.000000 2.573536 -1.361527 9.853727 0.004637 -0.204824 -10.422457 -8.231743 -1.149705 15.827114 9.428911 1.455024 5.249532 0.000000 0.000000 0.000000 0.962989 0.659093 -2.971955 -3.981594 1.837141 -7.876304 -0.233950 -2.932181 5.323535 0.050940 0.032164 0.010112 -0.229880 -1.513084 7.690188 0.776334 -0.613631 19.676107 0.000000 0.000000 0.000000 1.430732 -0.573343 4.170796 -7.439378 3.178291 -6.894006 4.947127 10.143933 -42.460045 -2.075518 -42.835661 -2.709038 0.000000 0.000000 0.000000 -2.669690 0.219886 3.473980 23.302293 -5.441425 -16.410991 2.862065 -14.574925 -52.004610 -0.581102 33.195635 5.922601 0.000000 0.000000 0.000000 
